<?xml version="1.0" encoding="UTF-8"?>
<svg version="1.1" xmlns="http://www.w3.org/2000/svg" width="1080" height="1080">
<path d="M0 0 C1.28095047 0.00015106 2.56190094 0.00030212 3.88166809 0.00045776 C5.26966509 0.01066948 6.65766049 0.02110145 8.0456543 0.03173828 C9.47340191 0.03547128 10.9011521 0.0383169 12.3289032 0.04031372 C16.07556304 0.0479276 19.82206631 0.06755659 23.56866455 0.08972168 C27.39625938 0.11022865 31.22387966 0.11932579 35.05151367 0.12939453 C42.55353795 0.15080479 50.05543351 0.18491337 57.55737305 0.22705078 C57.57442259 1.66662533 57.58658302 3.10625834 57.59667969 4.54589844 C57.60397598 5.34758453 57.61127228 6.14927063 57.61878967 6.97525024 C57.14500568 24.34623143 39.94142547 39.04873424 28.55737305 50.22705078 C27.55626132 51.22593782 26.55580196 52.22548216 25.55737305 53.22705078 C26.18385742 52.93830078 26.8103418 52.64955078 27.45581055 52.35205078 C28.27307617 51.98080078 29.0903418 51.60955078 29.93237305 51.22705078 C30.74448242 50.85580078 31.5565918 50.48455078 32.39331055 50.10205078 C34.55737305 49.22705078 34.55737305 49.22705078 36.55737305 49.22705078 C36.55737305 48.56705078 36.55737305 47.90705078 36.55737305 47.22705078 C39.49162676 46.05209935 42.43026817 44.88854226 45.36987305 43.72705078 C46.20325195 43.39318359 47.03663086 43.05931641 47.89526367 42.71533203 C49.09892578 42.24160156 49.09892578 42.24160156 50.3269043 41.75830078 C51.06529541 41.46503906 51.80368652 41.17177734 52.56445312 40.86962891 C54.55737305 40.22705078 54.55737305 40.22705078 57.55737305 40.22705078 C57.55737305 74.54705078 57.55737305 108.86705078 57.55737305 144.22705078 C78.34737305 144.22705078 99.13737305 144.22705078 120.55737305 144.22705078 C120.53416992 139.67408203 120.5109668 135.12111328 120.48706055 130.43017578 C120.47682536 127.52261789 120.4671963 124.61508264 120.4597168 121.70751953 C120.44782322 117.10607208 120.43384886 112.50470522 120.40649414 107.90332031 C120.38454862 104.18800735 120.37275936 100.47278099 120.36761856 96.75740814 C120.36396133 95.3494404 120.35682143 93.94147668 120.34591293 92.53354645 C120.17106324 69.00143106 126.6998014 54.21080672 143.05737305 37.35205078 C156.92046867 23.5223334 173.70874017 13.7868013 190.86987305 4.66455078 C191.70107666 4.22224121 192.53228027 3.77993164 193.38867188 3.32421875 C194.16235107 2.91961426 194.93603027 2.51500977 195.7331543 2.09814453 C196.42320557 1.73648193 197.11325684 1.37481934 197.82421875 1.00219727 C199.55737305 0.22705078 199.55737305 0.22705078 201.55737305 0.22705078 C201.65106961 20.69897344 201.72147582 41.17085221 201.76462173 61.64294529 C201.7851931 71.14981341 201.81320917 80.65654782 201.85913086 90.16333008 C201.89916559 98.45538219 201.92484523 106.7473374 201.93372703 115.03948349 C201.93891378 119.42476053 201.95098954 123.8097605 201.98029327 128.1949482 C202.00772625 132.33426922 202.01576267 136.47320274 202.00980377 140.61260605 C202.01089169 142.12051828 202.01867801 143.62844537 202.03419495 145.13627815 C202.16357206 158.37323943 200.07044705 170.74917635 193.74487305 182.53955078 C193.40012939 183.20341797 193.05538574 183.86728516 192.70019531 184.55126953 C189.75518042 190.10499631 186.43553 195.27411591 182.55737305 200.22705078 C181.7974707 201.24992187 181.7974707 201.24992187 181.0222168 202.29345703 C171.02423403 214.84620689 155.09798325 222.4712562 139.55737305 225.22705078 C134.07014797 225.63811232 128.60362041 225.63767867 123.1056366 225.61473083 C121.46429609 225.61891058 119.82295847 225.62439159 118.18162614 225.63105065 C113.69981287 225.64544013 109.2181845 225.64128096 104.73636138 225.63388383 C99.89164203 225.62913827 95.04696188 225.6416743 90.20225525 225.65190125 C80.72185245 225.66906777 71.24151599 225.66993366 61.76110169 225.66468834 C54.05222271 225.66064119 46.34336329 225.66209667 38.63448524 225.6674366 C36.98652967 225.66855923 36.98652967 225.66855923 35.30528206 225.66970455 C33.07314043 225.67123608 30.84099881 225.67277443 28.60885719 225.67431951 C7.69180974 225.68803694 -13.22520027 225.68261232 -34.14224686 225.6711343 C-53.25937299 225.66120405 -72.37640231 225.67414037 -91.4935135 225.69806849 C-111.14376154 225.72247777 -130.79396451 225.73206278 -150.4442274 225.72541577 C-161.46800756 225.72192745 -172.49171329 225.72412999 -183.51548195 225.74166679 C-192.90031158 225.75641168 -202.28501437 225.75699439 -211.66984157 225.73959588 C-216.45351712 225.73110213 -221.23696632 225.72889648 -226.02062988 225.74424744 C-230.40843638 225.75815317 -234.79582385 225.75325635 -239.18360647 225.7340082 C-240.76223788 225.73026583 -242.34090334 225.73311872 -243.91950426 225.74361985 C-265.19469395 225.8749676 -282.7147666 219.24582744 -298.33325195 204.43408203 C-309.59043453 192.54304908 -316.49699074 176.03006883 -316.69262695 159.72705078 C-316.7184082 158.43798828 -316.74418945 157.14892578 -316.77075195 155.82080078 C-316.41429872 151.91678922 -315.99930647 150.17866453 -313.44262695 147.22705078 C-307.29421388 143.79592838 -301.79367386 143.81020048 -294.85707092 143.86628723 C-293.69544463 143.86372396 -292.53381834 143.86116068 -291.33699125 143.85851973 C-288.12602487 143.85444277 -284.91542464 143.86377976 -281.70450151 143.87885392 C-278.23697153 143.89183873 -274.76945786 143.8874231 -271.3019104 143.88514709 C-265.29858951 143.8835759 -259.29536663 143.89296895 -253.29207039 143.90986061 C-244.61238438 143.93426698 -235.93274564 143.94205755 -227.25302904 143.94582459 C-213.16996127 143.9523865 -199.08694569 143.97234061 -185.00390625 144.00073242 C-171.32552349 144.02827971 -157.64715491 144.04951002 -143.96875 144.06225586 C-143.12526932 144.06304403 -142.28178863 144.0638322 -141.41274793 144.06464425 C-137.18115029 144.06855944 -132.94955256 144.07235054 -128.71795475 144.07607996 C-93.62614161 144.10716778 -58.5343891 144.15999651 -23.44262695 144.22705078 C-23.46357422 143.01235107 -23.48452148 141.79765137 -23.50610352 140.54614258 C-23.57909126 135.99320496 -23.62463832 131.44031791 -23.66235352 126.88696289 C-23.68233613 124.92496005 -23.70953179 122.96301573 -23.74438477 121.0012207 C-24.09116475 100.96447694 -20.31548401 90.07075235 -6.44262695 75.22705078 C-5.44546424 74.22422152 -4.44602494 73.22364121 -3.44262695 72.22705078 C-3.94189697 72.4996875 -4.44116699 72.77232422 -4.95556641 73.05322266 C-7.21862714 74.28431928 -9.48675894 75.50576291 -11.75512695 76.72705078 C-12.54081055 77.15630859 -13.32649414 77.58556641 -14.13598633 78.02783203 C-14.89331055 78.43388672 -15.65063477 78.83994141 -16.4309082 79.25830078 C-17.12740479 79.63535156 -17.82390137 80.01240234 -18.54150391 80.40087891 C-20.44262695 81.22705078 -20.44262695 81.22705078 -23.44262695 81.22705078 C-23.53559812 73.02071111 -23.60652829 64.81459409 -23.64987564 56.60785675 C-23.67068775 52.79648643 -23.69888692 48.98547832 -23.74438477 45.17431641 C-23.78807274 41.49141414 -23.81181195 37.8088587 -23.82213593 34.12571716 C-23.82948645 32.72556606 -23.84383993 31.32543242 -23.86554718 29.9254303 C-24.00237115 20.72935569 -23.74354162 14.13505281 -17.4777832 6.98486328 C-16.82680664 6.44603516 -16.17583008 5.90720703 -15.50512695 5.35205078 C-14.85672852 4.79775391 -14.20833008 4.24345703 -13.5402832 3.67236328 C-9.11124271 0.62069665 -5.33085637 -0.02102902 0 0 Z M20.55737305 55.22705078 C20.22737305 55.88705078 19.89737305 56.54705078 19.55737305 57.22705078 C20.21737305 57.22705078 20.87737305 57.22705078 21.55737305 57.22705078 C21.22737305 56.56705078 20.89737305 55.90705078 20.55737305 55.22705078 Z " fill="#0E4D92" transform="translate(598.442626953125,535.77294921875)"/>
<path d="M0 0 C0.94672577 -0.00428513 1.89345154 -0.00857025 2.86886597 -0.01298523 C4.86048591 -0.0186902 6.85212667 -0.01925734 8.84375 -0.01489258 C11.83891765 -0.01174843 14.83308006 -0.035186 17.828125 -0.06054688 C29.16609402 -0.0961167 39.69218584 0.65586598 50.7421875 3.30078125 C50.7421875 3.96078125 50.7421875 4.62078125 50.7421875 5.30078125 C51.6909375 5.36265625 52.6396875 5.42453125 53.6171875 5.48828125 C58.85155221 6.24505687 63.14536207 8.809727 67.7421875 11.30078125 C68.73734375 11.81511719 69.7325 12.32945312 70.7578125 12.859375 C78.48514052 16.91521078 78.48514052 16.91521078 80.7421875 20.30078125 C81.7321875 20.63078125 82.7221875 20.96078125 83.7421875 21.30078125 C85.9296875 23.23828125 85.9296875 23.23828125 87.7421875 25.30078125 C87.7421875 25.96078125 87.7421875 26.62078125 87.7421875 27.30078125 C88.7321875 27.63078125 89.7221875 27.96078125 90.7421875 28.30078125 C90.7421875 28.96078125 90.7421875 29.62078125 90.7421875 30.30078125 C91.3815625 30.56890625 92.0209375 30.83703125 92.6796875 31.11328125 C94.7421875 32.30078125 94.7421875 32.30078125 95.7421875 35.30078125 C96.4021875 35.30078125 97.0621875 35.30078125 97.7421875 35.30078125 C102.27763534 40.13326093 105.70701806 45.66850275 108.69921875 51.55078125 C109.62929063 53.46907031 109.62929063 53.46907031 111.7421875 54.30078125 C112.375 56.3671875 112.375 56.3671875 112.8671875 58.86328125 C113.11855469 60.10271484 113.11855469 60.10271484 113.375 61.3671875 C113.49617187 62.00527344 113.61734375 62.64335938 113.7421875 63.30078125 C114.4021875 63.30078125 115.0621875 63.30078125 115.7421875 63.30078125 C118.2888746 69.91475018 120.37344594 76.34301166 121.7421875 83.30078125 C122.0721875 83.30078125 122.4021875 83.30078125 122.7421875 83.30078125 C123.65719061 93.0198234 123.89889376 102.67252667 123.8671875 112.42578125 C123.86585815 113.6163916 123.86585815 113.6163916 123.86450195 114.83105469 C123.82407231 146.98817316 123.21240625 179.14771134 122.7421875 211.30078125 C104.72247293 211.34751608 86.7027741 211.38277737 68.68301201 211.40440559 C60.3159978 211.41471517 51.94902127 211.42876944 43.58203125 211.45166016 C36.28878699 211.47160376 28.99557001 211.4845 21.70229924 211.48895824 C17.84109883 211.49156397 13.97997649 211.49768198 10.11880112 211.51224136 C6.48271648 211.5258406 2.84674188 211.52999916 -0.78936577 211.52699661 C-2.7563149 211.52780707 -4.72325211 211.53855646 -6.69017029 211.54962158 C-7.86798569 211.54687225 -9.04580109 211.54412292 -10.25930786 211.54129028 C-11.2788109 211.54313387 -12.29831394 211.54497746 -13.34871101 211.54687691 C-16.57815422 211.27368192 -19.22635621 210.42156223 -22.2578125 209.30078125 C-23.71120157 208.90705378 -25.16907452 208.52909731 -26.6328125 208.17578125 C-27.8290625 207.88703125 -29.0253125 207.59828125 -30.2578125 207.30078125 C-30.2578125 206.64078125 -30.2578125 205.98078125 -30.2578125 205.30078125 C-33.2278125 204.64078125 -36.1978125 203.98078125 -39.2578125 203.30078125 C-39.2578125 202.64078125 -39.2578125 201.98078125 -39.2578125 201.30078125 C-40.711875 201.11515625 -40.711875 201.11515625 -42.1953125 200.92578125 C-43.2059375 200.71953125 -44.2165625 200.51328125 -45.2578125 200.30078125 C-45.5878125 199.64078125 -45.9178125 198.98078125 -46.2578125 198.30078125 C-47.1034375 197.88828125 -47.9490625 197.47578125 -48.8203125 197.05078125 C-54.7278224 194.04332166 -59.65843105 190.05347541 -64.2578125 185.30078125 C-65.711875 184.15609375 -65.711875 184.15609375 -67.1953125 182.98828125 C-70.0691919 180.64418265 -72.05000961 178.03565712 -74.08203125 174.94921875 C-75.23448486 173.23262953 -75.23448486 173.23262953 -76.859375 171.7265625 C-78.55223703 170.00059982 -78.85276165 168.65007616 -79.2578125 166.30078125 C-79.9178125 166.30078125 -80.5778125 166.30078125 -81.2578125 166.30078125 C-81.9178125 164.32078125 -82.5778125 162.34078125 -83.2578125 160.30078125 C-83.9178125 160.30078125 -84.5778125 160.30078125 -85.2578125 160.30078125 C-85.5878125 158.65078125 -85.9178125 157.00078125 -86.2578125 155.30078125 C-86.9178125 155.30078125 -87.5778125 155.30078125 -88.2578125 155.30078125 C-88.9178125 152.33078125 -89.5778125 149.36078125 -90.2578125 146.30078125 C-90.9178125 146.30078125 -91.5778125 146.30078125 -92.2578125 146.30078125 C-92.56525391 145.01880859 -92.56525391 145.01880859 -92.87890625 143.7109375 C-93.14832031 142.60621094 -93.41773438 141.50148438 -93.6953125 140.36328125 C-94.09556641 138.71005859 -94.09556641 138.71005859 -94.50390625 137.0234375 C-94.98776975 134.40656871 -94.98776975 134.40656871 -96.2578125 133.30078125 C-96.83640687 129.68456646 -97.2891693 126.05776603 -97.7578125 122.42578125 C-97.92208218 119.4410083 -97.92208218 119.4410083 -99.2578125 118.30078125 C-99.34518895 116.44708514 -99.36479403 114.59010584 -99.35546875 112.734375 C-99.35224609 111.60966797 -99.34902344 110.48496094 -99.34570312 109.32617188 C-99.33732422 108.14216797 -99.32894531 106.95816406 -99.3203125 105.73828125 C-99.31580078 104.55041016 -99.31128906 103.36253906 -99.30664062 102.13867188 C-99.29480925 99.19265899 -99.27832537 96.24674444 -99.2578125 93.30078125 C-98.5978125 93.30078125 -97.9378125 93.30078125 -97.2578125 93.30078125 C-97.20882812 92.34816406 -97.15984375 91.39554688 -97.109375 90.4140625 C-97.03460938 89.15980469 -96.95984375 87.90554688 -96.8828125 86.61328125 C-96.81320313 85.37191406 -96.74359375 84.13054687 -96.671875 82.8515625 C-96.28856023 79.56445758 -95.59131503 77.29105964 -94.2578125 74.30078125 C-93.85364031 72.87120925 -93.47580566 71.43375243 -93.1328125 69.98828125 C-92.8440625 68.77140625 -92.5553125 67.55453125 -92.2578125 66.30078125 C-91.5978125 66.30078125 -90.9378125 66.30078125 -90.2578125 66.30078125 C-89.5978125 63.33078125 -88.9378125 60.36078125 -88.2578125 57.30078125 C-87.5978125 57.30078125 -86.9378125 57.30078125 -86.2578125 57.30078125 C-85.9278125 55.65078125 -85.5978125 54.00078125 -85.2578125 52.30078125 C-84.5978125 52.30078125 -83.9378125 52.30078125 -83.2578125 52.30078125 C-83.14308594 51.7284375 -83.02835938 51.15609375 -82.91015625 50.56640625 C-82.19598894 48.08606469 -81.18473378 46.23709428 -79.8203125 44.05078125 C-79.17255859 42.99117187 -79.17255859 42.99117187 -78.51171875 41.91015625 C-78.09792969 41.3790625 -77.68414062 40.84796875 -77.2578125 40.30078125 C-76.5978125 40.30078125 -75.9378125 40.30078125 -75.2578125 40.30078125 C-75.2165625 39.74390625 -75.1753125 39.18703125 -75.1328125 38.61328125 C-74.0382568 35.72052689 -72.25601908 34.4465987 -69.859375 32.578125 C-68.06159294 31.19315811 -68.06159294 31.19315811 -65.8828125 28.92578125 C-63.66217047 26.70513922 -61.40879045 24.58237772 -59.0703125 22.48828125 C-58.39613281 21.88371094 -57.72195312 21.27914062 -57.02734375 20.65625 C-55.2578125 19.30078125 -55.2578125 19.30078125 -53.2578125 19.30078125 C-53.2578125 18.64078125 -53.2578125 17.98078125 -53.2578125 17.30078125 C-52.56816406 16.92566406 -51.87851563 16.55054688 -51.16796875 16.1640625 C-50.22824219 15.65230469 -49.28851563 15.14054688 -48.3203125 14.61328125 C-47.30839844 14.06542969 -46.29648438 13.51757812 -45.25390625 12.953125 C-43.47961952 11.97460703 -41.71636468 10.97479809 -39.98046875 9.9296875 C-28.01679919 2.77822022 -13.80510044 -0.01425707 0 0 Z M-12.2578125 77.30078125 C-12.2578125 77.96078125 -12.2578125 78.62078125 -12.2578125 79.30078125 C-13.2478125 79.30078125 -14.2378125 79.30078125 -15.2578125 79.30078125 C-16.72137001 80.7638038 -16.72137001 80.7638038 -17.9453125 82.67578125 C-18.38230469 83.30226563 -18.81929688 83.92875 -19.26953125 84.57421875 C-20.42340356 86.25850782 -20.42340356 86.25850782 -20.2578125 88.30078125 C-20.9178125 88.30078125 -21.5778125 88.30078125 -22.2578125 88.30078125 C-23.75602309 91.67175508 -24.2578125 93.50520244 -24.2578125 97.30078125 C-24.9178125 97.30078125 -25.5778125 97.30078125 -26.2578125 97.30078125 C-26.2578125 103.24078125 -26.2578125 109.18078125 -26.2578125 115.30078125 C-25.5978125 115.30078125 -24.9378125 115.30078125 -24.2578125 115.30078125 C-24.1134375 116.41453125 -23.9690625 117.52828125 -23.8203125 118.67578125 C-23.47409215 122.12220172 -23.47409215 122.12220172 -22.2578125 124.30078125 C-21.5978125 124.30078125 -20.9378125 124.30078125 -20.2578125 124.30078125 C-19.9278125 125.62078125 -19.5978125 126.94078125 -19.2578125 128.30078125 C-18.5978125 128.30078125 -17.9378125 128.30078125 -17.2578125 128.30078125 C-17.0103125 128.89890625 -16.7628125 129.49703125 -16.5078125 130.11328125 C-15.06588753 132.63664994 -13.73231624 133.80108201 -11.2578125 135.30078125 C-10.2678125 135.30078125 -9.2778125 135.30078125 -8.2578125 135.30078125 C-8.2578125 135.96078125 -8.2578125 136.62078125 -8.2578125 137.30078125 C-1.94327565 139.56072075 3.92012464 139.55980123 10.58203125 139.49609375 C11.70412491 139.49326385 12.82621857 139.49043396 13.98231506 139.48751831 C17.54821668 139.476369 21.11386244 139.45127376 24.6796875 139.42578125 C27.10481407 139.41574468 29.52994459 139.40662001 31.95507812 139.3984375 C37.88420113 139.37644684 43.81317603 139.34302152 49.7421875 139.30078125 C50.0721875 139.96078125 50.4021875 140.62078125 50.7421875 141.30078125 C50.76688242 135.08943981 50.78504508 128.87812687 50.79711914 122.66674805 C50.80215194 120.55313621 50.8089787 118.43952787 50.81762695 116.32592773 C50.82973854 113.29019307 50.83542631 110.25450439 50.83984375 107.21875 C50.84500504 106.27178757 50.85016632 105.32482513 50.85548401 104.34916687 C50.85559731 103.02813713 50.85559731 103.02813713 50.85571289 101.68041992 C50.8579335 100.90542648 50.86015411 100.13043304 50.86244202 99.33195496 C50.81827827 97.09637537 50.81827827 97.09637537 49.7421875 94.30078125 C49.0821875 94.30078125 48.4221875 94.30078125 47.7421875 94.30078125 C47.2471875 90.83578125 47.2471875 90.83578125 46.7421875 87.30078125 C45.7521875 86.97078125 44.7621875 86.64078125 43.7421875 86.30078125 C43.7421875 85.31078125 43.7421875 84.32078125 43.7421875 83.30078125 C40.70562792 80.25001282 40.70562792 80.25001282 36.7421875 79.30078125 C36.2471875 77.81578125 36.2471875 77.81578125 35.7421875 76.30078125 C28.54593459 71.74266981 20.55358329 71.65998352 12.3046875 71.73828125 C11.15419922 71.71443359 10.00371094 71.69058594 8.81835938 71.66601562 C0.72527775 71.67977157 -5.19355621 73.36864619 -12.2578125 77.30078125 Z " fill="#0E4D92" transform="translate(134.2578125,543.69921875)"/>
<path d="M0 0 C0.09351649 28.86830804 0.16401515 57.73659332 0.20724869 86.60502243 C0.21135459 89.27558146 0.21549323 91.94614039 0.21972656 94.61669922 C0.2207758 95.28045859 0.22182505 95.94421796 0.22290608 96.62809125 C0.23920477 106.69171776 0.26727341 116.75526829 0.30175781 126.81884766 C0.34167547 138.50476211 0.3674447 150.19060832 0.37635398 161.87658906 C0.38156032 168.06199485 0.39376339 174.24720541 0.42292023 180.43254852 C0.45016699 186.2601667 0.4584262 192.0875101 0.45243073 197.91518593 C0.45352682 200.04841164 0.46142513 202.181647 0.4768219 204.31481743 C0.62041639 225.24443713 -4.26630034 239.85736511 -18 256 C-18.515625 256.63808594 -19.03125 257.27617188 -19.5625 257.93359375 C-23.29224844 262.48429225 -27.46006809 266.26894841 -32 270 C-33.49853516 271.2375 -33.49853516 271.2375 -35.02734375 272.5 C-77.490798 307 -77.490798 307 -93 307 C-93.0935363 278.14896272 -93.16402483 249.29794824 -93.20724869 220.44678974 C-93.21135457 217.77727053 -93.2154932 215.10775142 -93.21972656 212.43823242 C-93.2207758 211.77473536 -93.22182505 211.1112383 -93.22290608 210.42763527 C-93.23920073 200.3705789 -93.26735847 190.31360141 -93.30175781 180.2565918 C-93.34168833 168.57689368 -93.36744774 156.89726391 -93.37635398 145.21749943 C-93.38155815 139.03597404 -93.3937473 132.85464414 -93.42292023 126.67318153 C-93.45018736 120.84802255 -93.45842213 115.0231385 -93.45243073 109.19792175 C-93.45352591 107.06672862 -93.46141199 104.93552574 -93.4768219 102.80438805 C-93.64746721 77.97463774 -86.15956005 61.61947088 -68.8125 43.5 C-52.27530984 27.3942148 -32.0037291 15.23654407 -11.75 4.4375 C-10.51612549 3.77439819 -10.51612549 3.77439819 -9.25732422 3.09790039 C-8.48662598 2.6930542 -7.71592773 2.28820801 -6.921875 1.87109375 C-6.23706055 1.50943115 -5.55224609 1.14776855 -4.84667969 0.77514648 C-3 0 -3 0 0 0 Z " fill="#0E4D92" transform="translate(918,459)"/>
<path d="M0 0 C1.64766357 -0.00503792 1.64766357 -0.00503792 3.32861328 -0.01017761 C6.9574497 -0.01966927 10.58623983 -0.02163025 14.21508789 -0.02270508 C16.74890664 -0.02592035 19.28272521 -0.02928463 21.81654358 -0.03279114 C27.13176986 -0.03877899 32.44697903 -0.04067446 37.76220703 -0.04003906 C43.86960724 -0.03944068 49.97691843 -0.04994731 56.08429617 -0.06578273 C61.99279872 -0.08054651 67.90126673 -0.08402398 73.80978584 -0.08342934 C76.30657882 -0.08460217 78.80337259 -0.08898438 81.30015373 -0.0967617 C107.28884488 -0.17009662 131.16370283 1.03397573 150.81274414 20.39526367 C156.09913088 25.77653627 160.39208581 31.49515031 164.00024414 38.14526367 C164.52553207 39.04985321 164.52553207 39.04985321 165.06143188 39.97271729 C166.17290127 42.54481706 166.26682575 44.44796269 166.29077148 47.24584961 C166.30353119 48.26080505 166.31629089 49.2757605 166.32943726 50.32147217 C166.3316629 51.41316711 166.33388855 52.50486206 166.33618164 53.62963867 C166.34616684 55.32398041 166.34616684 55.32398041 166.35635376 57.05255127 C166.3664783 59.44313937 166.37117084 61.83375572 166.37084961 64.22436523 C166.3752112 67.8677482 166.41150296 71.50990844 166.44946289 75.15307617 C166.45533348 77.47859288 166.45930125 79.80411532 166.46118164 82.12963867 C166.47555267 83.21323669 166.48992371 84.29683472 166.50473022 85.41326904 C166.44762345 94.9498199 163.7147187 101.27818742 157.00024414 108.14526367 C150.80972731 112.63642294 146.0038093 114.30538086 138.33227539 114.38354492 C137.20181038 114.39565254 137.20181038 114.39565254 136.04850769 114.40800476 C134.4522836 114.42182868 132.85603016 114.4325584 131.25976562 114.44042969 C129.63728089 114.45192289 128.01483317 114.47233261 126.39257812 114.50195312 C109.79587765 114.80488056 109.79587765 114.80488056 103.00024414 110.14526367 C101.45336914 109.09338867 101.45336914 109.09338867 99.87524414 108.02026367 C94.93033274 103.52365467 91.22591647 98.31950618 90.74389648 91.53955078 C90.77435059 90.30470947 90.80480469 89.06986816 90.83618164 87.79760742 C90.85986816 86.54842529 90.88355469 85.29924316 90.90795898 84.01220703 C90.93841309 83.06611572 90.96886719 82.12002441 91.00024414 81.14526367 C89.68194611 81.15636673 88.36364807 81.16746979 87.00540161 81.1789093 C74.55873418 81.28043418 62.11215118 81.3553008 49.66516304 81.40432453 C43.26658952 81.43037581 36.86835129 81.46569327 30.4699707 81.52246094 C24.29077755 81.57693848 18.11190615 81.60671781 11.9324913 81.61964989 C9.57944553 81.6288614 7.22641661 81.64684932 4.87350845 81.67391396 C1.56787839 81.71041215 -1.73643597 81.71520016 -5.04223633 81.71289062 C-6.00681259 81.730867 -6.97138885 81.74884338 -7.9651947 81.7673645 C-14.86445933 81.71548519 -20.27462882 80.07697776 -25.99975586 76.14526367 C-30.49709845 71.35590783 -33.09675435 67.20512762 -33.17675781 60.52539062 C-33.18959305 59.59044266 -33.20242828 58.65549469 -33.21565247 57.69221497 C-33.2230394 56.68285385 -33.23042633 55.67349274 -33.23803711 54.63354492 C-33.24610886 53.591353 -33.2541806 52.54916107 -33.26249695 51.47538757 C-33.2763334 49.26713726 -33.28705752 47.0588656 -33.29492188 44.85058594 C-33.31210083 41.48810757 -33.35598794 38.12662114 -33.40014648 34.7644043 C-33.41027672 32.61662505 -33.41879178 30.46883746 -33.42553711 28.32104492 C-33.4430452 27.32180496 -33.46055328 26.322565 -33.47859192 25.29304504 C-33.45630579 18.05081918 -32.04007479 12.6684968 -27.25366211 7.12182617 C-18.73434743 0.31424447 -10.6112903 -0.00466793 0 0 Z " fill="#0E4D92" transform="translate(314.999755859375,543.854736328125)"/>
<path d="M0 0 C1.24512863 -0.00137466 2.49025726 -0.00274933 3.77311707 -0.00416565 C5.13977075 -0.00062723 6.50642419 0.00300757 7.87307739 0.00672913 C9.32221983 0.00701141 10.77136241 0.00685246 12.22050476 0.00628662 C16.14359066 0.00600026 20.06664586 0.01187101 23.98972464 0.01886058 C28.09367307 0.02512088 32.19762224 0.02570003 36.30157471 0.02688599 C44.06810329 0.02999141 51.83461776 0.03819417 59.60114014 0.04823548 C68.44512358 0.0594211 77.2891077 0.06491324 86.13309646 0.06993091 C104.32133377 0.08037744 122.50955796 0.09796161 140.69778442 0.12025452 C140.71079985 2.68643315 140.72031015 5.25254506 140.72781372 7.81874084 C140.73183952 8.54144417 140.73586533 9.26414749 140.74001312 10.00875092 C140.78745156 31.64877971 132.71266884 51.80757942 117.56887817 67.30384827 C110.99494505 73.82036713 104.22204108 79.15569334 96.01028442 83.43275452 C95.13110352 83.9031012 95.13110352 83.9031012 94.23416138 84.38294983 C82.24772448 90.26528469 69.28098438 91.71873756 56.11184692 91.57435608 C54.63167349 91.57322369 53.15149783 91.57386906 51.67132568 91.5761261 C47.70938514 91.57725896 43.7479436 91.55398558 39.78611755 91.52583027 C35.62486399 91.5005743 31.463595 91.49845578 27.30227661 91.49372864 C19.44743933 91.48136912 11.59282867 91.44864423 3.73809052 91.40833068 C-5.21491962 91.36339229 -14.16794142 91.34157083 -23.12103653 91.32154894 C-41.51489064 91.27990407 -59.9085348 91.20969097 -78.30221558 91.12025452 C-78.31427658 88.55261339 -78.3230921 85.9850295 -78.33004761 83.41737366 C-78.33377884 82.69408119 -78.33751007 81.97078873 -78.34135437 81.22557831 C-78.38759204 58.46082541 -69.47972924 39.13136489 -53.92330933 22.65150452 C-39.78054379 8.99351336 -19.80281435 -0.01692548 0 0 Z " fill="#0E4D92" transform="translate(840.3022155761719,359.87974548339844)"/>
<path d="M0 0 C2.475 0.495 2.475 0.495 5 1 C6.83611918 21.92150993 7.83365071 42.84148154 8.6015625 63.82421875 C8.65027646 65.1400981 8.65027646 65.1400981 8.69997454 66.48256087 C10.35200763 111.36032 10.46144919 156.22854976 10.38570714 201.1314925 C10.37256039 209.84651575 10.3820928 218.56141076 10.3965925 227.27642614 C10.41031175 235.88148545 10.41208474 244.48649 10.40427649 253.09155673 C10.3996919 258.14500551 10.39871629 263.19836748 10.40888596 268.25181007 C10.45838102 296.69562065 9.87382 324.77772305 3.63037109 352.67456055 C3.1128047 354.99210783 2.6233678 357.31445332 2.13671875 359.63867188 C0.29749864 368.23828987 -2.01909594 376.49690213 -4.91186523 384.80029297 C-5.76830498 387.31869085 -6.50260098 389.769559 -7.10546875 392.35546875 C-8.19841294 396.80838112 -9.70854937 401.02197552 -11.3125 405.3125 C-11.62155273 406.14555664 -11.93060547 406.97861328 -12.24902344 407.83691406 C-14.25497626 413.18127128 -16.40258534 418.42232697 -18.859375 423.578125 C-19.75029546 425.46980542 -20.5871702 427.38696471 -21.40234375 429.3125 C-23.05778902 433.20138282 -24.91192298 436.97596423 -26.8125 440.75 C-27.1643335 441.44955811 -27.51616699 442.14911621 -27.87866211 442.86987305 C-38.89932362 464.67831228 -38.89932362 464.67831228 -46.0234375 473.5078125 C-47.93370274 475.9164078 -49.44425935 478.3535946 -51 481 C-55.50480556 487.63490593 -60.39732006 493.75537718 -65.83203125 499.6484375 C-67.84841828 501.83558163 -69.80620901 504.06090697 -71.75 506.3125 C-74.38251452 509.33928513 -77.16315537 512.16315537 -80 515 C-80.70125 515.9075 -81.4025 516.815 -82.125 517.75 C-86.05273541 522.55193357 -91.16378829 526.16753034 -96 530 C-96.85335937 530.69609375 -97.70671875 531.3921875 -98.5859375 532.109375 C-104.21168048 536.68805541 -109.98847828 540.94268813 -116 545 C-116.77085937 545.54140625 -117.54171875 546.0828125 -118.3359375 546.640625 C-137.17722865 559.35998243 -159.02078154 566.8771583 -181 572 C-181.72237162 572.17724987 -182.44474323 572.35449974 -183.1890049 572.53712082 C-192.51288339 574.54427849 -201.85553417 574.28104106 -211.34130859 574.25878906 C-213.30230651 574.26145828 -215.26330342 574.26497164 -217.22429848 574.26925468 C-222.57361537 574.27826708 -227.92285665 574.27461081 -233.27217484 574.26842356 C-237.82868394 574.2646467 -242.38517685 574.26796259 -246.94168544 574.27132332 C-260.50860686 574.28126589 -274.07547299 574.2719457 -287.64238739 574.25754547 C-295.37871737 574.24948845 -303.11504613 574.24583069 -310.85137939 574.24261475 C-402.24445677 574.19962857 -493.61771303 573.50470471 -584.99963528 572.1066516 C-590.43624021 572.02354497 -595.87286674 571.94199641 -601.30950928 571.86138916 C-621.06075925 571.56834518 -640.81173538 571.26167173 -660.5625 570.9375 C-661.80420708 570.9173307 -663.04591415 570.89716141 -664.32524872 570.87638092 C-671.27912765 570.76317186 -678.23290363 570.64561281 -685.18657875 570.52048302 C-687.23285007 570.48410624 -689.27914392 570.44897053 -691.32546043 570.4152317 C-701.25148917 570.2501263 -711.11870733 570.05385519 -721 569 C-721 567.68 -721 566.36 -721 565 C-644.79393286 563.75883119 -568.58691626 562.74426927 -492.375 561.9375 C-491.37499419 561.92690158 -490.37498837 561.91630317 -489.34467936 561.90538359 C-439.58429438 561.3781691 -389.82368756 560.88274888 -340.0625 560.4375 C-310.88600147 560.1764323 -281.70994317 559.89973926 -252.53458786 559.53007889 C-250.19064133 559.5008194 -247.84668318 559.47283788 -245.50271606 559.44528198 C-232.16827602 559.28711908 -218.83619237 559.11710965 -205.51171875 558.546875 C-204.65462311 558.5116272 -203.79752747 558.47637939 -202.91445923 558.44006348 C-175.51367891 557.11711226 -146.12997017 546.37463559 -124.03125 530.16015625 C-121 528 -121 528 -119 528 C-119 527.34 -119 526.68 -119 526 C-114.61538462 523 -114.61538462 523 -112 523 C-112 522.34 -112 521.68 -112 521 C-110.20703125 519.44921875 -110.20703125 519.44921875 -107.8125 517.6875 C-104.25106902 514.99973256 -101.11641937 512.20064692 -98 509 C-96 507.33333333 -94 505.66666667 -92 504 C-88.61212302 500.73820906 -85.56555533 497.35523237 -82.625 493.6875 C-79.35558894 489.6388793 -76.0139954 485.69650703 -72.5078125 481.8515625 C-70.74884197 479.69158315 -69.42188151 477.39398418 -68 475 C-66.80669596 473.36393157 -65.59724105 471.73956534 -64.375 470.125 C-51.30484364 452.26724057 -40.81043961 431.73696528 -32.83203125 411.12890625 C-32.08281836 409.21190612 -31.26420186 407.32238023 -30.4375 405.4375 C-29.06622822 402.15837183 -27.91009762 398.88623086 -26.81640625 395.5078125 C-26.23645844 393.72634602 -25.63815942 391.95080763 -25.02734375 390.1796875 C-22.9900568 384.24599242 -21.23396598 378.32472237 -19.77734375 372.22265625 C-19.23483899 369.97357872 -18.66206451 367.73168145 -18.06640625 365.49609375 C-16.01010932 357.69496725 -14.33657497 349.88367614 -12.9375 341.9375 C-12.71235718 340.67522583 -12.71235718 340.67522583 -12.48266602 339.38745117 C-11.95045022 336.26350138 -11.47716855 333.1328928 -11 330 C-10.82321826 328.90671843 -10.82321826 328.90671843 -10.64286518 327.79135036 C-8.02499591 311.38213329 -7.55084473 295.21801754 -7.55952477 278.62641621 C-7.55792545 274.99375695 -7.53860831 271.36118766 -7.52104187 267.72857666 C-7.4930904 261.56188463 -7.47403171 255.3952264 -7.46124268 249.22848511 C-7.42863128 234.03078651 -7.33921836 218.83333241 -7.2517767 203.63586736 C-7.23828567 201.26640134 -7.22526391 198.89693313 -7.21234894 196.52746391 C-7.07924995 172.3252219 -6.83537564 148.13078219 -6.125 123.9375 C-6.10430828 123.22933262 -6.08361656 122.52116524 -6.06229782 121.79153824 C-4.86024475 81.16642002 -2.77726406 40.54705813 0 0 Z " fill="#0E4D92" transform="translate(1004,340)"/>
<path d="M0 0 C1.12312088 -0.00058411 2.24624176 -0.00116821 3.40339661 -0.00177002 C7.08289458 0.00099693 10.76156306 0.03202442 14.44091797 0.06347656 C17.00494952 0.07094386 19.56898681 0.07663448 22.13302612 0.08062744 C28.17127933 0.09429323 34.20918135 0.12575652 40.24729431 0.1660254 C47.12764388 0.2109045 54.00800827 0.23277047 60.88846803 0.25280714 C75.02850897 0.29449472 89.16829108 0.36474529 103.30810547 0.45410156 C103.44812239 7.67846666 103.55423383 14.90253166 103.6189785 22.12798691 C103.65008063 25.48460123 103.69546514 28.83957524 103.76074219 32.19580078 C103.8341398 36.068604 103.86769794 39.94010081 103.89404297 43.81347656 C103.92501068 44.99834656 103.95597839 46.18321655 103.98788452 47.4039917 C103.99179242 57.23678077 101.16483899 64.93890134 94.74560547 72.45410156 C93.94123047 73.11410156 93.13685547 73.77410156 92.30810547 74.45410156 C91.58623047 75.13472656 90.86435547 75.81535156 90.12060547 76.51660156 C82.36369496 81.86025102 74.86752286 83.03620616 65.61621094 82.90820312 C64.49309006 82.90878723 63.36996918 82.90937134 62.21281433 82.90997314 C58.53331636 82.90720619 54.85464788 82.87617871 51.17529297 82.84472656 C48.61126142 82.83725927 46.04722413 82.83156865 43.48318481 82.82757568 C37.44493161 82.81390989 31.40702959 82.78244661 25.36891663 82.74217772 C18.48856706 82.69729863 11.60820267 82.67543266 4.72774291 82.65539598 C-9.41229803 82.6137084 -23.55208014 82.54345784 -37.69189453 82.45410156 C-37.83191145 75.22973647 -37.9380229 68.00567146 -38.00276756 60.78021622 C-38.03386969 57.42360189 -38.0792542 54.06862788 -38.14453125 50.71240234 C-38.21792886 46.83959913 -38.251487 42.96810232 -38.27783203 39.09472656 C-38.30879974 37.90985657 -38.33976746 36.72498657 -38.37167358 35.50421143 C-38.37558148 25.67142236 -35.54862805 17.96930178 -29.12939453 10.45410156 C-28.32501953 9.79410156 -27.52064453 9.13410156 -26.69189453 8.45410156 C-25.97001953 7.77347656 -25.24814453 7.09285156 -24.50439453 6.39160156 C-16.74748403 1.0479521 -9.25131192 -0.12800304 0 0 Z " fill="#008CC3" transform="translate(675.69189453125,787.5458984375)"/>
<path d="M0 0 C1.80994949 0.00848969 1.80994949 0.00848969 3.65646362 0.01715088 C7.47712356 0.039384 11.29681521 0.08955823 15.1171875 0.140625 C17.72134054 0.16070678 20.32550841 0.17895459 22.9296875 0.1953125 C29.28417963 0.23920603 35.63811436 0.30598719 41.9921875 0.390625 C41.9921875 0.720625 41.9921875 1.050625 41.9921875 1.390625 C41.4353125 1.52597656 40.8784375 1.66132812 40.3046875 1.80078125 C33.44268443 3.73651522 27.75895097 6.8483699 23.96046448 13.08442688 C20.38502761 20.14256173 20.39024966 26.81770505 20.3828125 34.61328125 C20.36780337 35.96807301 20.35107056 37.32284666 20.33270264 38.67759705 C20.28932216 42.2137036 20.26909606 45.74956349 20.25396729 49.28588867 C20.23428928 52.90623384 20.19233203 56.52631666 20.15234375 60.14648438 C20.07736036 67.22776403 20.02687704 74.3090238 19.9921875 81.390625 C16.88884867 82.42507128 14.76342501 82.51145924 11.51098633 82.50415039 C10.39005081 82.50407486 9.2691153 82.50399933 8.11421204 82.50392151 C6.90476425 82.49876022 5.69531647 82.49359894 4.44921875 82.48828125 C3.21048508 82.4868663 1.9717514 82.48545135 0.69548035 82.48399353 C-2.59412787 82.47934102 -5.8836871 82.4703589 -9.17327881 82.45928955 C-12.53152873 82.44905129 -15.88978583 82.44449074 -19.24804688 82.43945312 C-25.83465462 82.42841645 -32.42122955 82.41167267 -39.0078125 82.390625 C-39.14782942 75.1662599 -39.25394086 67.9421949 -39.31868553 60.71673965 C-39.34978766 57.36012533 -39.39517217 54.00515132 -39.46044922 50.64892578 C-39.53384683 46.77612257 -39.56740497 42.90462575 -39.59375 39.03125 C-39.62471771 37.84638 -39.65568542 36.66151001 -39.68759155 35.44073486 C-39.69149945 25.60794579 -36.86454602 17.90582522 -30.4453125 10.390625 C-29.6409375 9.730625 -28.8365625 9.070625 -28.0078125 8.390625 C-27.2859375 7.71 -26.5640625 7.029375 -25.8203125 6.328125 C-17.60828549 0.67095084 -9.77710669 -0.17530125 0 0 Z " fill="#0D4D92" transform="translate(677.0078125,787.609375)"/>
<path d="M0 0 C0.33 0.66 0.66 1.32 1 2 C0.34 1.67 -0.32 1.34 -1 1 C-0.67 0.67 -0.34 0.34 0 0 Z " fill="#0E4D92" transform="translate(50,591)"/>
<path d="" fill="#0E4D92" transform="translate(0,0)"/>
<path d="" fill="#0E4D92" transform="translate(0,0)"/>
<path d="M0 0 C2 1 2 1 2 1 Z " fill="#0E4D92" transform="translate(243,592)"/>
<path d="" fill="#0E4D92" transform="translate(0,0)"/>
<path d="" fill="#0E4D92" transform="translate(0,0)"/>
<path d="" fill="#0E4D92" transform="translate(0,0)"/>
<path d="" fill="#0E4D92" transform="translate(0,0)"/>
<path d="" fill="#0E4D92" transform="translate(0,0)"/>
<path d="" fill="#0E4D92" transform="translate(0,0)"/>
<path d="" fill="#0E4D92" transform="translate(0,0)"/>
<path d="" fill="#0E4D92" transform="translate(0,0)"/>
<path d="" fill="#0E4D92" transform="translate(0,0)"/>
<path d="" fill="#0E4D92" transform="translate(0,0)"/>
<path d="" fill="#0E4D92" transform="translate(0,0)"/>
</svg>
